<svg id="Capa_1" enable-background="new 0 0 512 512" height="512" viewBox="0 0 512 512" width="512" xmlns="http://www.w3.org/2000/svg"><g><g><path d="m256 480c-15.079 0-29.075-7.49-37.441-20.037l-65.157-97.735c-17.193 1.467-32.605 10.796-41.872 25.622l-33.526 53.64c-4.582 7.333-7.004 15.779-7.004 24.425 0 25.411 20.674 46.085 46.085 46.085h277.83c25.411 0 46.085-20.674 46.085-46.085 0-8.647-2.422-17.093-7.005-24.425l-33.525-53.64c-9.266-14.826-24.679-24.155-41.872-25.622l-65.156 97.733c-8.367 12.549-22.363 20.039-37.442 20.039z"/></g><g><path d="m319.022 138.937c-2.787-11.15-12.76-18.937-24.253-18.937h-77.537c-11.493 0-21.467 7.787-24.254 18.937l-11.628 46.511c-.232.93-.35 1.884-.35 2.841 0 6.458 5.254 11.712 11.712 11.712 2.958 0 5.741-1.575 7.263-4.111l20.25-33.751c4.492-7.486 12.706-12.138 21.438-12.138h28.676c8.731 0 16.945 4.651 21.438 12.138l20.25 33.75c1.521 2.537 4.305 4.112 7.263 4.112 6.458 0 11.712-5.254 11.712-11.712 0-.957-.117-1.911-.35-2.837z"/><path d="m401.345 87.064c-13.716-25.628-33.8-47.2-58.082-62.385-25.82-16.145-55.994-24.679-87.263-24.679s-61.443 8.534-87.263 24.68c-24.282 15.185-44.366 36.757-58.082 62.385-13.717 25.629-20.525 54.307-19.69 82.933.889 30.438 10.525 60.28 27.87 86.297l124.685 187.025c2.782 4.173 7.465 6.68 12.48 6.68s9.698-2.507 12.48-6.68l124.685-187.026c17.345-26.017 26.981-55.858 27.87-86.297.835-28.626-5.973-57.304-19.69-82.933zm-82.057 142.936c-13.436 0-26.076-7.157-32.987-18.678l-18.794-31.322h-23.014l-18.794 31.323c-6.911 11.52-19.552 18.677-32.987 18.677-23 0-41.712-18.712-41.712-41.712 0-3.409.419-6.814 1.246-10.12l11.628-46.507c6.131-24.529 28.073-41.661 53.357-41.661h77.537c25.284 0 47.227 17.132 53.358 41.661l11.627 46.511c.827 3.302 1.246 6.707 1.246 10.116.001 23-18.711 41.712-41.711 41.712z"/></g></g></svg>